<svg viewBox="0 0 381.942 512" width="381.942" height="512" style="enable-background:new 0 0 381.942 512" xml:space="preserve" xmlns="http://www.w3.org/2000/svg">
  <g style="opacity:1" transform="translate(-242.532522 -175.560247) scale(0.2167506787217298)">
    <path style="fill:#d0d0d0" d="M2839.831 1342.075v1347.549c0 144.027-85.509 274.455-217.792 331.941l-182.764 79.329c-56.25 24.518-117.858 34.203-178.849 28.433l-772.883-74.177c-118.065-11.332-218.41-78.504-275.691-174.11h-.205c-32.762-54.602-51.512-118.477-51.512-186.266V1490.842c0-155.978 99.932-294.442 247.874-343.482l781.949-259.825c22.047-7.417 44.506-12.569 67.171-15.453 83.655-10.92 169.37 7.83 241.693 53.984l173.904 111.06c104.055 66.347 167.105 181.527 167.105 304.949"/>
    <path style="fill:#b1b1b1" d="M2839.831 1342.075v1347.549c0 144.027-85.509 274.455-217.792 331.941l-182.764 79.329c-56.25 24.518-117.858 34.203-178.849 28.433l-772.883-74.177c-118.065-11.332-218.41-78.504-275.691-174.11 671.508 180.085 1083.602 16.279 1119.248-646.37V1180.535c4.121-181.734-60.784-278.37-60.784-278.37l-13.186-30.083c83.655-10.92 169.37 7.83 241.693 53.984l173.904 111.06c104.054 66.347 167.104 181.527 167.104 304.949"/>
    <path style="fill:#090909" d="M2294.854 3172.125c-12.769 0-25.544-.605-38.286-1.829l-772.961-74.119c-100.017-9.59-192.31-55.823-259.88-130.183-67.568-74.358-104.78-170.645-104.78-271.118V1490.77a402.56 402.56 0 0 1 276.05-382.585l781.926-259.749c115.82-38.472 241.23-22.864 344.082 42.822l173.918 111.074c116.563 74.441 186.15 201.455 186.15 339.763v1347.466c0 160.632-95.2 305.776-242.534 369.768l-182.881 79.436c-50.721 22.029-105.653 33.36-160.804 33.36m9.477-2261.951c-34.004 0-68.208 5.442-101.428 16.479l-781.926 259.749a320.26 320.26 0 0 0-219.614 304.368v1204.106c0 166.147 124.722 303.401 290.11 319.26l772.961 74.118c53.928 5.164 108.696-3.506 158.386-25.085l182.883-79.436c117.214-50.911 192.952-166.379 192.952-294.172V1342.095c0-110.032-55.364-211.079-148.093-270.3l-173.918-111.074c-52.328-33.418-112-50.547-172.313-50.547"/>
    <path style="fill:#090909" d="M2161.404 3150.689c-15.054 0-28.245-11.016-30.53-26.355-2.517-16.882 9.131-32.61 26.013-35.125l12.251-1.804c58.855-8.616 109.683-16.057 144.68-53.901 41.04-44.382 60.964-131.616 60.906-266.692V1195.904c2.021-131.296-19.182-211.121-64.817-244.514-45.898-33.586-127.231-29.17-255.959 13.889-16.189 5.408-33.701-3.32-39.116-19.507-5.413-16.189 3.32-33.701 19.507-39.116 151.465-50.659 247.708-52.253 312.073-5.151 63.867 46.736 92.505 140.435 90.125 294.876l.005 1570.42c.063 153.457-24.512 251.545-77.339 308.672-49.822 53.877-116.565 63.647-181.111 73.096l-12.092 1.78c-1.544.228-3.08.34-4.596.34m343.037-57.573c-5.266 0-10.522-1.987-14.521-5.984-7.761-7.761-8.13-20.081-.925-28.166 45.571-57.801 67.727-153.36 67.727-292.075V1195.987c1.755-111.03-17.834-194.07-58.223-247.141-6.892-9.055-5.137-21.982 3.918-28.875 9.053-6.887 21.98-5.139 28.875 3.919 46.118 60.601 68.54 152.258 66.638 272.424l.002 1570.576c0 148.936-25.259 253.086-77.214 318.396a20.79 20.79 0 0 1-16.277 7.83m.151-20.657h.049z"/>
    <path style="fill:#090909" d="M2588.533 3042.142c-7.771 0-15.21-4.419-18.701-11.931-4.792-10.322-.31-22.573 10.01-27.365 69.714-32.376 103.601-96.011 103.601-194.539V1237.403c.071-8.018.193-15.742.315-23.35 1.309-81.66 2.253-140.659-61.836-185.015-9.358-6.477-11.692-19.312-5.217-28.669 6.482-9.356 19.319-11.687 28.669-5.217 82.192 56.887 80.928 135.903 79.587 219.56-.12 7.51-.242 15.134-.31 22.871l.002 1570.723c0 114.612-42.883 192.637-127.454 231.914a20.5 20.5 0 0 1-8.666 1.922"/>
    <path style="fill:#b1b1b1" d="M2237.815 2015.669v-840.65c0-30.595-29.32-52.659-58.719-44.187L1332.36 1374.83c-19.692 5.674-33.252 23.694-33.252 44.187v662.086c0 26.793 22.815 47.913 49.528 45.849l846.736-65.435c23.952-1.85 42.443-21.825 42.443-45.848"/>
    <path style="fill:#090909" d="M1345.139 2152.843c-17.981 0-35.505-6.804-48.779-19.092-14.622-13.535-23.008-32.722-23.008-52.646v-662.087c0-31.787 21.333-60.134 51.877-68.935l846.736-243.999c21.863-6.304 44.822-2.068 63 11.611 18.179 13.682 28.606 34.575 28.606 57.327v840.65c0 37.239-29.084 68.657-66.213 71.526l-846.736 65.435q-2.746.21-5.483.21m846.746-998.069a20.4 20.4 0 0 0-5.657.806l-846.736 243.999c-8.613 2.483-14.626 10.476-14.626 19.438v662.087c0 5.701 2.302 10.972 6.487 14.844 4.182 3.872 9.626 5.742 15.3 5.325l846.736-65.434c10.469-.811 18.669-9.668 18.669-20.168v-840.65c0-6.416-2.939-12.309-8.066-16.167-3.567-2.686-7.791-4.08-12.107-4.08"/>
    <path style="fill:#090909" d="M1378.751 2124.643v-556.945c0-76.238 50.276-143.203 123.422-164.22l735.588-212.023-.863 833.32c-5.417 19.986-17.25 31.076-33.915 35.467z"/>
    <g style="opacity:.51">
      <path style="fill:#fff" d="M1936.151 1345.094c-561.85 135.408-499.663 171.363-487.604 631.018.215 8.178 11.219 10.359 14.739 2.975 132.157-277.287 295.438-471.946 479.539-620.422 6.49-5.234 1.432-15.525-6.674-13.571"/>
    </g>
    <path style="fill:#444444" d="m1698.458 2363.669-111.872 5.044-.851-130.652-160.754 6.896.195 135.146-112.795 5.085v142.019h112.795v133.079l160.559 6.897v-139.976h111.871z"/>
    <path style="fill:#090909" d="M1585.735 2687.288q-.43 0-.862-.017l-160.559-6.897c-10.759-.464-19.243-9.319-19.243-20.088v-112.974h-92.69c-11.104 0-20.105-9.001-20.105-20.105v-142.019c0-10.752 8.459-19.6 19.199-20.085l93.569-4.219-.168-115.898c-.015-10.62 8.23-19.421 18.831-20.095l160.732-10.218c5.493-.334 10.942 1.589 14.985 5.361a20.1 20.1 0 0 1 6.394 14.573l.737 113.081 90.996-4.106c5.527-.205 10.867 1.772 14.836 5.588a20.1 20.1 0 0 1 6.174 14.602l-.85 163.54c-.059 11.062-9.043 20-20.105 20h-91.768v119.871a20.103 20.103 0 0 1-20.103 20.105m-140.454-46.262 120.349 5.171v-118.989c0-11.104 9.001-20.105 20.105-20.105h91.873l.635-122.397-90.75 4.094c-5.488.232-10.789-1.743-14.751-5.508a20.1 20.1 0 0 1-6.26-14.446l-.735-112.69-120.635 7.669.168 116.25c.015 10.764-8.447 19.629-19.199 20.115l-93.596 4.219v102.695h92.69c11.104 0 20.105 9.001 20.105 20.105z"/>
    <path style="fill:#444444" d="m1667.986 2367.818-111.872 5.045v-134.802l-160.558 8.683v133.359l-112.795 5.085v142.019h112.795v133.079l160.558 6.897v-139.976h111.872z"/>
    <path style="fill:#090909" d="M1556.113 2687.288q-.431 0-.862-.017l-160.557-6.897c-10.759-.464-19.243-9.319-19.243-20.088v-112.974h-92.69c-11.104 0-20.105-9.001-20.105-20.105v-142.019c0-10.752 8.459-19.6 19.199-20.085l93.596-4.219v-114.141c0-10.681 8.352-19.5 19.019-20.076l160.557-8.684a20.17 20.17 0 0 1 14.915 5.481 20.1 20.1 0 0 1 6.277 14.595v113.77l90.862-4.097a20.1 20.1 0 0 1 14.797 5.552 20.1 20.1 0 0 1 6.213 14.534v159.39c0 11.104-9.001 20.105-20.105 20.105h-91.768v119.871a20.12 20.12 0 0 1-6.196 14.519 20.1 20.1 0 0 1-13.909 5.585m-140.451-46.262 120.347 5.171v-118.989c0-11.104 9.001-20.105 20.105-20.105h91.768v-118.252l-90.862 4.097c-5.522.212-10.833-1.76-14.797-5.552a20.1 20.1 0 0 1-6.213-14.534v-113.579l-120.347 6.509v114.312c0 10.752-8.459 19.599-19.199 20.085l-93.596 4.219v102.695h92.69c11.104 0 20.105 9.001 20.105 20.105z"/>
    <path style="fill:#626262" d="M2088.899 2228.865h-58.237c-59.815 0-108.303 56.951-108.303 127.204 0 70.254 48.489 127.205 108.303 127.205h58.237c59.815 0 108.303-56.951 108.303-127.205s-48.489-127.204-108.303-127.204"/>
    <path style="fill:#090909" d="M2088.899 2503.377h-58.237c-70.806 0-128.408-66.082-128.408-147.31 0-81.226 57.603-147.307 128.408-147.307h58.237c70.806 0 128.408 66.082 128.408 147.307 0 81.229-57.602 147.31-128.408 147.31m-58.237-254.407c-48.633 0-88.198 48.044-88.198 107.097 0 59.055 39.565 107.1 88.198 107.1h58.237c48.633 0 88.198-48.044 88.198-107.1 0-59.053-39.565-107.097-88.198-107.097z"/>
    <path style="fill:#090909" d="M2030.662 2498.729c-68.24 0-123.757-63.996-123.757-142.658s55.518-142.659 123.757-142.659c68.237 0 123.755 63.996 123.755 142.659 0 78.661-55.518 142.658-123.755 142.658m0-254.409c-51.199 0-92.849 50.132-92.849 111.751 0 61.618 41.65 111.75 92.849 111.75 51.196 0 92.847-50.132 92.847-111.75-.001-61.62-41.651-111.751-92.847-111.751"/>
    <path style="fill:#8e8e8e" d="M1951.477 2568.076h-58.238c-59.814 0-108.303 56.951-108.303 127.204 0 70.254 48.489 127.205 108.303 127.205h58.238c59.815 0 108.303-56.951 108.303-127.205s-48.488-127.204-108.303-127.204"/>
    <path style="fill:#090909" d="M1951.477 2842.589h-58.237c-70.806 0-128.408-66.082-128.408-147.31 0-81.226 57.603-147.307 128.408-147.307h58.237c70.806 0 128.408 66.082 128.408 147.307 0 81.228-57.602 147.31-128.408 147.31m-58.237-254.407c-48.633 0-88.198 48.044-88.198 107.097 0 59.055 39.565 107.1 88.198 107.1h58.237c48.633 0 88.198-48.044 88.198-107.1 0-59.053-39.565-107.097-88.198-107.097z"/>
    <path style="fill:#090909" d="M1893.24 2837.94c-68.24 0-123.757-63.997-123.757-142.659s55.518-142.659 123.757-142.659c68.237 0 123.755 63.997 123.755 142.659s-55.518 142.659-123.755 142.659m0-254.409c-51.199 0-92.849 50.132-92.849 111.75s41.65 111.75 92.849 111.75c51.196 0 92.847-50.132 92.847-111.75s-41.651-111.75-92.847-111.75"/>
  </g>
</svg>
